<?xml version="1.0" encoding="UTF-8"?>
<!DOCTYPE svg PUBLIC "-//W3C//DTD SVG 1.1//EN" "http://www.w3.org/Graphics/SVG/1.1/DTD/svg11.dtd">
<svg version="1.2" width="210mm" height="297mm" viewBox="0 0 21000 29700" preserveAspectRatio="xMidYMid" fill-rule="evenodd" stroke-width="28.222" stroke-linejoin="round" xmlns="http://www.w3.org/2000/svg" xmlns:ooo="http://xml.openoffice.org/svg/export" xmlns:xlink="http://www.w3.org/1999/xlink" xmlns:presentation="http://sun.com/xmlns/staroffice/presentation" xmlns:smil="http://www.w3.org/2001/SMIL20/" xmlns:anim="urn:oasis:names:tc:opendocument:xmlns:animation:1.0" xmlns:svg="urn:oasis:names:tc:opendocument:xmlns:svg-compatible:1.0" xml:space="preserve">
 <defs class="ClipPathGroup">
  <clipPath id="presentation_clip_path" clipPathUnits="userSpaceOnUse">
   <rect x="0" y="0" width="21000" height="29700"/>
  </clipPath>
  <clipPath id="presentation_clip_path_shrink" clipPathUnits="userSpaceOnUse">
   <rect x="21" y="29" width="20958" height="29641"/>
  </clipPath>
 </defs>
 <defs class="TextShapeIndex">
  <g ooo:slide="id1" ooo:id-list="id3 id4 id5 id6 id7 id8"/>
 </defs>
 <defs class="EmbeddedBulletChars">
  <g id="bullet-char-template-57356" transform="scale(0.00048828125,-0.00048828125)">
   <path d="M 580,1141 L 1163,571 580,0 -4,571 580,1141 Z"/>
  </g>
  <g id="bullet-char-template-57354" transform="scale(0.00048828125,-0.00048828125)">
   <path d="M 8,1128 L 1137,1128 1137,0 8,0 8,1128 Z"/>
  </g>
  <g id="bullet-char-template-10146" transform="scale(0.00048828125,-0.00048828125)">
   <path d="M 174,0 L 602,739 174,1481 1456,739 174,0 Z M 1358,739 L 309,1346 659,739 1358,739 Z"/>
  </g>
  <g id="bullet-char-template-10132" transform="scale(0.00048828125,-0.00048828125)">
   <path d="M 2015,739 L 1276,0 717,0 1260,543 174,543 174,936 1260,936 717,1481 1274,1481 2015,739 Z"/>
  </g>
  <g id="bullet-char-template-10007" transform="scale(0.00048828125,-0.00048828125)">
   <path d="M 0,-2 C -7,14 -16,27 -25,37 L 356,567 C 262,823 215,952 215,954 215,979 228,992 255,992 264,992 276,990 289,987 310,991 331,999 354,1012 L 381,999 492,748 772,1049 836,1024 860,1049 C 881,1039 901,1025 922,1006 886,937 835,863 770,784 769,783 710,716 594,584 L 774,223 C 774,196 753,168 711,139 L 727,119 C 717,90 699,76 672,76 641,76 570,178 457,381 L 164,-76 C 142,-110 111,-127 72,-127 30,-127 9,-110 8,-76 1,-67 -2,-52 -2,-32 -2,-23 -1,-13 0,-2 Z"/>
  </g>
  <g id="bullet-char-template-10004" transform="scale(0.00048828125,-0.00048828125)">
   <path d="M 285,-33 C 182,-33 111,30 74,156 52,228 41,333 41,471 41,549 55,616 82,672 116,743 169,778 240,778 293,778 328,747 346,684 L 369,508 C 377,444 397,411 428,410 L 1163,1116 C 1174,1127 1196,1133 1229,1133 1271,1133 1292,1118 1292,1087 L 1292,965 C 1292,929 1282,901 1262,881 L 442,47 C 390,-6 338,-33 285,-33 Z"/>
  </g>
  <g id="bullet-char-template-9679" transform="scale(0.00048828125,-0.00048828125)">
   <path d="M 813,0 C 632,0 489,54 383,161 276,268 223,411 223,592 223,773 276,916 383,1023 489,1130 632,1184 813,1184 992,1184 1136,1130 1245,1023 1353,916 1407,772 1407,592 1407,412 1353,268 1245,161 1136,54 992,0 813,0 Z"/>
  </g>
  <g id="bullet-char-template-8226" transform="scale(0.00048828125,-0.00048828125)">
   <path d="M 346,457 C 273,457 209,483 155,535 101,586 74,649 74,723 74,796 101,859 155,911 209,963 273,989 346,989 419,989 480,963 531,910 582,859 608,796 608,723 608,648 583,586 532,535 482,483 420,457 346,457 Z"/>
  </g>
  <g id="bullet-char-template-8211" transform="scale(0.00048828125,-0.00048828125)">
   <path d="M -4,459 L 1135,459 1135,606 -4,606 -4,459 Z"/>
  </g>
  <g id="bullet-char-template-61548" transform="scale(0.00048828125,-0.00048828125)">
   <path d="M 173,740 C 173,903 231,1043 346,1159 462,1274 601,1332 765,1332 928,1332 1067,1274 1183,1159 1299,1043 1357,903 1357,740 1357,577 1299,437 1183,322 1067,206 928,148 765,148 601,148 462,206 346,322 231,437 173,577 173,740 Z"/>
  </g>
 </defs>
 <g>
  <g id="id2" class="Master_Slide">
   <g id="bg-id2" class="Background"/>
   <g id="bo-id2" class="BackgroundObjects"/>
  </g>
 </g>
 <g class="SlideGroup">
  <g>
   <g id="container-id1">
    <g id="id1" class="Slide" clip-path="url(#presentation_clip_path)">
     <g class="Page">
      <g class="Group">
       <g class="com.sun.star.drawing.CustomShape">
        <g id="id3">
         <rect class="BoundingBox" stroke="none" fill="none" x="950" y="950" width="10102" height="10102"/>
         <path fill="rgb(18,118,34)" stroke="none" d="M 2666,1000 L 2667,1000 C 2374,1000 2087,1077 1833,1223 1580,1370 1370,1580 1223,1833 1077,2087 1000,2374 1000,2667 L 1000,9334 1000,9334 C 1000,9627 1077,9914 1223,10168 1370,10421 1580,10631 1833,10778 2087,10924 2374,11001 2667,11001 L 9334,11001 9334,11001 C 9627,11001 9914,10924 10168,10778 10421,10631 10631,10421 10778,10168 10924,9914 11001,9627 11001,9334 L 11001,2666 11001,2667 11001,2667 C 11001,2374 10924,2087 10778,1833 10631,1580 10421,1370 10168,1223 9914,1077 9627,1000 9334,1000 L 2666,1000 Z "/>
         <path fill="none" stroke="rgb(153,153,153)" stroke-width="100" stroke-linejoin="round" d="M 2666,1000 L 2667,1000 C 2374,1000 2087,1077 1833,1223 1580,1370 1370,1580 1223,1833 1077,2087 1000,2374 1000,2667 L 1000,9334 1000,9334 C 1000,9627 1077,9914 1223,10168 1370,10421 1580,10631 1833,10778 2087,10924 2374,11001 2667,11001 L 9334,11001 9334,11001 C 9627,11001 9914,10924 10168,10778 10421,10631 10631,10421 10778,10168 10924,9914 11001,9627 11001,9334 L 11001,2666 11001,2667 11001,2667 C 11001,2374 10924,2087 10778,1833 10631,1580 10421,1370 10168,1223 9914,1077 9627,1000 9334,1000 L 2666,1000 Z "/>
        </g>
       </g>
       <g class="com.sun.star.drawing.CustomShape">
        <g id="id4">
         <rect class="BoundingBox" stroke="none" fill="none" x="1950" y="6250" width="3802" height="3802"/>
         <path fill="rgb(18,118,34)" stroke="none" d="M 2683,6400 L 2684,6400 C 2581,6400 2480,6427 2392,6478 2303,6529 2229,6603 2178,6692 2127,6780 2100,6881 2100,6983 L 2100,9317 2100,9318 C 2100,9420 2127,9521 2178,9609 2229,9698 2303,9772 2392,9823 2480,9874 2581,9901 2684,9901 L 5017,9901 5018,9901 C 5120,9901 5221,9874 5309,9823 5398,9772 5472,9698 5523,9609 5574,9521 5601,9420 5601,9318 L 5601,6983 5601,6983 5601,6983 C 5601,6881 5574,6780 5523,6692 5472,6603 5398,6529 5309,6478 5221,6427 5120,6400 5018,6400 L 2683,6400 Z "/>
         <path fill="none" stroke="rgb(255,255,255)" stroke-width="300" stroke-linejoin="round" d="M 2683,6400 L 2684,6400 C 2581,6400 2480,6427 2392,6478 2303,6529 2229,6603 2178,6692 2127,6780 2100,6881 2100,6983 L 2100,9317 2100,9318 C 2100,9420 2127,9521 2178,9609 2229,9698 2303,9772 2392,9823 2480,9874 2581,9901 2684,9901 L 5017,9901 5018,9901 C 5120,9901 5221,9874 5309,9823 5398,9772 5472,9698 5523,9609 5574,9521 5601,9420 5601,9318 L 5601,6983 5601,6983 5601,6983 C 5601,6881 5574,6780 5523,6692 5472,6603 5398,6529 5309,6478 5221,6427 5120,6400 5018,6400 L 2683,6400 Z "/>
        </g>
       </g>
       <g class="com.sun.star.drawing.CustomShape">
        <g id="id5">
         <rect class="BoundingBox" stroke="none" fill="none" x="1950" y="1950" width="3802" height="3802"/>
         <path fill="rgb(18,118,34)" stroke="none" d="M 2683,2100 L 2684,2100 C 2581,2100 2480,2127 2392,2178 2303,2229 2229,2303 2178,2392 2127,2480 2100,2581 2100,2684 L 2100,5017 2100,5018 C 2100,5120 2127,5221 2178,5309 2229,5398 2303,5472 2392,5523 2480,5574 2581,5601 2684,5601 L 5017,5601 5018,5601 C 5120,5601 5221,5574 5309,5523 5398,5472 5472,5398 5523,5309 5574,5221 5601,5120 5601,5018 L 5601,2683 5601,2684 5601,2684 C 5601,2581 5574,2480 5523,2392 5472,2303 5398,2229 5309,2178 5221,2127 5120,2100 5018,2100 L 2683,2100 Z "/>
         <path fill="none" stroke="rgb(255,255,255)" stroke-width="300" stroke-linejoin="round" d="M 2683,2100 L 2684,2100 C 2581,2100 2480,2127 2392,2178 2303,2229 2229,2303 2178,2392 2127,2480 2100,2581 2100,2684 L 2100,5017 2100,5018 C 2100,5120 2127,5221 2178,5309 2229,5398 2303,5472 2392,5523 2480,5574 2581,5601 2684,5601 L 5017,5601 5018,5601 C 5120,5601 5221,5574 5309,5523 5398,5472 5472,5398 5523,5309 5574,5221 5601,5120 5601,5018 L 5601,2683 5601,2684 5601,2684 C 5601,2581 5574,2480 5523,2392 5472,2303 5398,2229 5309,2178 5221,2127 5120,2100 5018,2100 L 2683,2100 Z "/>
        </g>
       </g>
       <g class="com.sun.star.drawing.CustomShape">
        <g id="id6">
         <rect class="BoundingBox" stroke="none" fill="none" x="6250" y="6250" width="3802" height="3802"/>
         <path fill="rgb(18,118,34)" stroke="none" d="M 6983,6400 L 6983,6400 C 6881,6400 6780,6427 6692,6478 6603,6529 6529,6603 6478,6692 6427,6780 6400,6881 6400,6983 L 6400,9317 6400,9318 C 6400,9420 6427,9521 6478,9609 6529,9698 6603,9772 6692,9823 6780,9874 6881,9901 6983,9901 L 9317,9901 9318,9901 C 9420,9901 9521,9874 9609,9823 9698,9772 9772,9698 9823,9609 9874,9521 9901,9420 9901,9318 L 9901,6983 9901,6983 9901,6983 C 9901,6881 9874,6780 9823,6692 9772,6603 9698,6529 9609,6478 9521,6427 9420,6400 9318,6400 L 6983,6400 Z "/>
         <path fill="none" stroke="rgb(255,255,255)" stroke-width="300" stroke-linejoin="round" d="M 6983,6400 L 6983,6400 C 6881,6400 6780,6427 6692,6478 6603,6529 6529,6603 6478,6692 6427,6780 6400,6881 6400,6983 L 6400,9317 6400,9318 C 6400,9420 6427,9521 6478,9609 6529,9698 6603,9772 6692,9823 6780,9874 6881,9901 6983,9901 L 9317,9901 9318,9901 C 9420,9901 9521,9874 9609,9823 9698,9772 9772,9698 9823,9609 9874,9521 9901,9420 9901,9318 L 9901,6983 9901,6983 9901,6983 C 9901,6881 9874,6780 9823,6692 9772,6603 9698,6529 9609,6478 9521,6427 9420,6400 9318,6400 L 6983,6400 Z "/>
        </g>
       </g>
       <g class="com.sun.star.drawing.CustomShape">
        <g id="id7">
         <rect class="BoundingBox" stroke="none" fill="none" x="6200" y="2216" width="3901" height="3585"/>
         <path fill="rgb(114,159,207)" stroke="none" d="M 7132,2366 L 7059,2418 6989,2474 6922,2534 6858,2597 6797,2663 6740,2731 6686,2803 6635,2877 6589,2954 6546,3033 6508,3114 6473,3196 6442,3281 6416,3366 6394,3453 6377,3541 6364,3630 6355,3719 6350,3809 6351,3898 6355,3988 6364,4077 6378,4165 6396,4253 6418,4340 6445,4426 6475,4510 6510,4593 6549,4673 6592,4752 6639,4828 6690,4902 6744,4974 6802,5042 6863,5108 6927,5171 6994,5230 7064,5286 7137,5338 7212,5387 7290,5431 7370,5472 7452,5509 7535,5542 7620,5570 7706,5594 7794,5614 7882,5630 7971,5641 8060,5648 8150,5650 8240,5648 8329,5641 8418,5630 8506,5614 8594,5594 8680,5570 8765,5542 8848,5509 8930,5472 9010,5431 9088,5387 9163,5338 9236,5286 9306,5230 9373,5171 9437,5108 9498,5042 9556,4974 9610,4902 9661,4828 9708,4752 9751,4673 9790,4593 9825,4510 9855,4426 9882,4340 9904,4253 9922,4165 9936,4077 9945,3988 9949,3898 9950,3809 9945,3719 9936,3630 9923,3541 9906,3453 9884,3366 9858,3281 9827,3196 9792,3114 9754,3033 9711,2954 9665,2877 9614,2803 9560,2731 9503,2663 9442,2597 9378,2534 9311,2474 9241,2418 9168,2366 9168,2366 9241,2418 9311,2474 9378,2534 9442,2597 9503,2663 9560,2731 9614,2803 9665,2877 9711,2954 9754,3033 9792,3114 9827,3196 9858,3281 9884,3366 9906,3453 9923,3541 9936,3630 9945,3719 9950,3809 9949,3898 9945,3988 9936,4077 9922,4165 9904,4253 9882,4340 9855,4426 9825,4510 9790,4593 9751,4673 9708,4752 9661,4828 9610,4902 9556,4974 9498,5042 9437,5108 9373,5171 9306,5230 9236,5286 9163,5338 9088,5387 9010,5431 8930,5472 8848,5509 8765,5542 8680,5570 8594,5594 8506,5614 8418,5630 8329,5641 8240,5648 8150,5650 8060,5648 7971,5641 7882,5630 7794,5614 7706,5594 7620,5570 7535,5542 7452,5509 7370,5472 7290,5431 7212,5387 7137,5338 7064,5286 6994,5230 6927,5171 6863,5108 6802,5042 6744,4974 6690,4902 6639,4828 6592,4752 6549,4673 6510,4593 6475,4510 6445,4426 6418,4340 6396,4253 6378,4165 6364,4077 6355,3988 6351,3898 6350,3809 6355,3719 6364,3630 6377,3541 6394,3453 6416,3366 6442,3281 6473,3196 6508,3114 6546,3033 6589,2954 6635,2877 6686,2803 6740,2731 6797,2663 6858,2597 6922,2534 6989,2474 7059,2418 7132,2366 7132,2366 Z "/>
         <path fill="none" stroke="rgb(255,255,255)" stroke-width="300" stroke-linejoin="round" d="M 7132,2366 L 7059,2418 6989,2474 6922,2534 6858,2597 6797,2663 6740,2731 6686,2803 6635,2877 6589,2954 6546,3033 6508,3114 6473,3196 6442,3281 6416,3366 6394,3453 6377,3541 6364,3630 6355,3719 6350,3809 6351,3898 6355,3988 6364,4077 6378,4165 6396,4253 6418,4340 6445,4426 6475,4510 6510,4593 6549,4673 6592,4752 6639,4828 6690,4902 6744,4974 6802,5042 6863,5108 6927,5171 6994,5230 7064,5286 7137,5338 7212,5387 7290,5431 7370,5472 7452,5509 7535,5542 7620,5570 7706,5594 7794,5614 7882,5630 7971,5641 8060,5648 8150,5650 8240,5648 8329,5641 8418,5630 8506,5614 8594,5594 8680,5570 8765,5542 8848,5509 8930,5472 9010,5431 9088,5387 9163,5338 9236,5286 9306,5230 9373,5171 9437,5108 9498,5042 9556,4974 9610,4902 9661,4828 9708,4752 9751,4673 9790,4593 9825,4510 9855,4426 9882,4340 9904,4253 9922,4165 9936,4077 9945,3988 9949,3898 9950,3809 9945,3719 9936,3630 9923,3541 9906,3453 9884,3366 9858,3281 9827,3196 9792,3114 9754,3033 9711,2954 9665,2877 9614,2803 9560,2731 9503,2663 9442,2597 9378,2534 9311,2474 9241,2418 9168,2366 9168,2366 9241,2418 9311,2474 9378,2534 9442,2597 9503,2663 9560,2731 9614,2803 9665,2877 9711,2954 9754,3033 9792,3114 9827,3196 9858,3281 9884,3366 9906,3453 9923,3541 9936,3630 9945,3719 9950,3809 9949,3898 9945,3988 9936,4077 9922,4165 9904,4253 9882,4340 9855,4426 9825,4510 9790,4593 9751,4673 9708,4752 9661,4828 9610,4902 9556,4974 9498,5042 9437,5108 9373,5171 9306,5230 9236,5286 9163,5338 9088,5387 9010,5431 8930,5472 8848,5509 8765,5542 8680,5570 8594,5594 8506,5614 8418,5630 8329,5641 8240,5648 8150,5650 8060,5648 7971,5641 7882,5630 7794,5614 7706,5594 7620,5570 7535,5542 7452,5509 7370,5472 7290,5431 7212,5387 7137,5338 7064,5286 6994,5230 6927,5171 6863,5108 6802,5042 6744,4974 6690,4902 6639,4828 6592,4752 6549,4673 6510,4593 6475,4510 6445,4426 6418,4340 6396,4253 6378,4165 6364,4077 6355,3988 6351,3898 6350,3809 6355,3719 6364,3630 6377,3541 6394,3453 6416,3366 6442,3281 6473,3196 6508,3114 6546,3033 6589,2954 6635,2877 6686,2803 6740,2731 6797,2663 6858,2597 6922,2534 6989,2474 7059,2418 7132,2366 7132,2366 Z "/>
        </g>
       </g>
       <g class="com.sun.star.drawing.CustomShape">
        <g id="id8">
         <rect class="BoundingBox" stroke="none" fill="none" x="7999" y="1950" width="303" height="1302"/>
         <path fill="rgb(18,118,34)" stroke="none" d="M 8149,2100 L 8149,2100 C 8149,2100 8149,2100 8149,2100 8149,2100 8149,2100 8149,2100 8149,2100 8149,2100 8149,2100 L 8149,3100 8149,3101 C 8149,3101 8149,3101 8149,3101 8149,3101 8149,3101 8149,3101 8149,3101 8149,3101 8149,3101 L 8150,3101 8151,3101 C 8151,3101 8151,3101 8151,3101 8151,3101 8151,3101 8151,3101 8151,3101 8151,3101 8151,3101 L 8151,2100 8151,2100 8151,2100 C 8151,2100 8151,2100 8151,2100 8151,2100 8151,2100 8151,2100 8151,2100 8151,2100 8151,2100 L 8149,2100 Z "/>
         <path fill="none" stroke="rgb(255,255,255)" stroke-width="300" stroke-linejoin="round" d="M 8149,2100 L 8149,2100 C 8149,2100 8149,2100 8149,2100 8149,2100 8149,2100 8149,2100 8149,2100 8149,2100 8149,2100 L 8149,3100 8149,3101 C 8149,3101 8149,3101 8149,3101 8149,3101 8149,3101 8149,3101 8149,3101 8149,3101 8149,3101 L 8150,3101 8151,3101 C 8151,3101 8151,3101 8151,3101 8151,3101 8151,3101 8151,3101 8151,3101 8151,3101 8151,3101 L 8151,2100 8151,2100 8151,2100 C 8151,2100 8151,2100 8151,2100 8151,2100 8151,2100 8151,2100 8151,2100 8151,2100 8151,2100 L 8149,2100 Z "/>
        </g>
       </g>
      </g>
     </g>
    </g>
   </g>
  </g>
 </g>
</svg>